HIERARCHY
ROOT Pelvis
{
	OFFSET 0.000000 0.000000 0.000000
	CHANNELS 6 Xposition Yposition Zposition Xrotation Yrotation Zrotation
	JOINT LeftUpLeg_virtual
	{
		OFFSET 0.000000 0.000000 0.000000
		CHANNELS 3 Xrotation Yrotation Zrotation
		JOINT LeftUpLeg
		{
			OFFSET 18.735201 -5.666702 -4.541200
			CHANNELS 3 Xrotation Yrotation Zrotation
			JOINT LeftLeg
			{
				OFFSET -0.021200 -31.938179 0.493100
				CHANNELS 3 Xrotation Yrotation Zrotation
				JOINT LeftFoot
				{
					OFFSET 0.021200 -31.938179 -4.336299
					CHANNELS 3 Xrotation Yrotation Zrotation
					JOINT LeftToeBase
					{
						OFFSET 0.943001 -26.722000 15.023500
						CHANNELS 3 Xrotation Yrotation Zrotation
						End Site
						{
							OFFSET 0 0 0
						}
					}
				}
			}
		}
	}
	JOINT RightUpLeg_virtual
	{
		OFFSET 0.000000 0.000000 0.000000
		CHANNELS 3 Xrotation Yrotation Zrotation
		JOINT RightUpLeg
		{
			OFFSET -18.735201 -5.666702 -4.541200
			CHANNELS 3 Xrotation Yrotation Zrotation
			JOINT RightLeg
			{
				OFFSET 0.018946 -31.938133 0.493100
				CHANNELS 3 Xrotation Yrotation Zrotation
				JOINT RightFoot
				{
					OFFSET -0.018946 -31.938126 -4.336299
					CHANNELS 3 Xrotation Yrotation Zrotation
					JOINT RightToeBase
					{
						OFFSET -0.943001 -26.722004 15.023500
						CHANNELS 3 Xrotation Yrotation Zrotation
						End Site
						{
							OFFSET 0 0 0
						}
					}
				}
			}
		}
	}
	JOINT Hips_virtual
	{
		OFFSET 0.000000 0.000000 0.000000
		CHANNELS 3 Xrotation Yrotation Zrotation
		JOINT Hips
		{
			OFFSET -0.000000 -0.000000 -0.000000
			CHANNELS 3 Xrotation Yrotation Zrotation
			JOINT Spine
			{
				OFFSET 0.000000 10.199997 -0.299500
				CHANNELS 3 Xrotation Yrotation Zrotation
				JOINT Spine1
				{
					OFFSET 0.000000 11.900002 -1.516600
					CHANNELS 3 Xrotation Yrotation Zrotation
					JOINT Spine2
					{
						OFFSET 0.000000 13.600006 -2.842500
						CHANNELS 3 Xrotation Yrotation Zrotation
						JOINT Neck_virtual
						{
							OFFSET 0.000000 0.000000 0.000000
							CHANNELS 3 Xrotation Yrotation Zrotation
							JOINT Neck
							{
								OFFSET 0.000000 9.624100 -2.890100
								CHANNELS 3 Xrotation Yrotation Zrotation
								JOINT Head
								{
									OFFSET 0.000000 14.068802 -1.351900
									CHANNELS 3 Xrotation Yrotation Zrotation
									End Site
									{
										OFFSET 0 0 0
									}
								}
							}
						}
						JOINT LeftShoulder_virtual
						{
							OFFSET 0.000000 0.000000 0.000000
							CHANNELS 3 Xrotation Yrotation Zrotation
							JOINT LeftShoulder
							{
								OFFSET 15.263000 10.923401 -0.547700
								CHANNELS 3 Xrotation Yrotation Zrotation
								JOINT LeftArm
								{
									OFFSET 25.438599 -2.830597 -13.032500
									CHANNELS 3 Xrotation Yrotation Zrotation
									JOINT LeftForeArm
									{
										OFFSET 29.960503 0.000000 0.000000
										CHANNELS 3 Xrotation Yrotation Zrotation
										JOINT LeftHand
										{
											OFFSET 27.849251 0.000000 0.000000
											CHANNELS 3 Xrotation Yrotation Zrotation
											End Site
											{
												OFFSET 0 0 0
											}
										}
									}
								}
							}
						}
						JOINT RightShoulder_virtual
						{
							OFFSET 0.000000 0.000000 0.000000
							CHANNELS 3 Xrotation Yrotation Zrotation
							JOINT RightShoulder
							{
								OFFSET -15.263000 10.923401 -0.547700
								CHANNELS 3 Xrotation Yrotation Zrotation
								JOINT RightArm
								{
									OFFSET -25.438599 -2.830597 -13.032500
									CHANNELS 3 Xrotation Yrotation Zrotation
									JOINT RightForeArm
									{
										OFFSET -29.960503 0.000000 0.000000
										CHANNELS 3 Xrotation Yrotation Zrotation
										JOINT RightHand
										{
											OFFSET -27.849251 0.000000 0.000000
											CHANNELS 3 Xrotation Yrotation Zrotation
											End Site
											{
												OFFSET 0 0 0
											}
										}
									}
								}
							}
						}
					}
				}
			}
		}
	}
}
MOTION
Frames: 9
Frame Time: 0.03333333
-7.908858 91.412384 4.585913 0.000000 0.000000 0.000000 8.288429 3.215264 2.709803 -25.079939 4.275978 8.297683 30.624915 -0.530536 -5.586696 -13.670506 -1.645899 0.106865 0.000000 0.000000 0.000000 8.034171 4.104457 2.745848 -19.995061 -10.671885 -7.136902 29.676315 -9.521218 5.055833 -13.216946 -8.266528 -8.947634 0.000000 0.000000 0.000000 8.042625 3.698619 3.081303 -0.808660 -0.116239 -0.117349 19.268081 -2.534656 0.575438 4.146098 -2.092836 1.274546 0.000000 0.000000 0.000000 -0.691043 -1.361506 1.285622 8.515110 3.104635 0.437649 0.000000 0.000000 0.000000 0.851283 -1.501075 1.931814 1.188330 -31.963663 -17.633511 20.946729 14.203224 -37.132928 -19.514148 -58.651866 -20.607499 0.000000 0.000000 0.000000 -1.217801 -0.835003 1.076845 -2.111540 7.240650 5.049500 19.107430 7.149177 32.412014 -7.505355 46.756084 -1.669358 0.000000 0.000000 0.000000 
-7.842086 91.429863 4.728460 0.000000 0.000000 0.000000 8.250017 3.158251 2.785209 -24.746767 4.309527 8.339635 30.458187 -0.745070 -5.645056 -13.698996 -1.822869 -0.370298 0.000000 0.000000 0.000000 7.968169 4.040135 2.847888 -19.866090 -10.516645 -7.415061 29.942019 -9.480339 4.975520 -13.341816 -8.195098 -8.748511 0.000000 0.000000 0.000000 7.964286 3.682001 3.096887 -0.798552 -0.114502 -0.113642 18.639747 -2.422984 1.065469 4.230629 -2.254996 1.401532 0.000000 0.000000 0.000000 -0.680612 -1.520305 1.424507 8.539605 2.988673 0.442264 0.000000 0.000000 0.000000 0.712846 -1.679124 1.955118 0.529817 -32.258406 -18.501372 23.095559 15.755986 -38.446916 -18.701538 -59.136160 -19.918029 0.000000 0.000000 0.000000 -1.137756 -0.991701 1.213571 -2.324568 7.639736 4.331441 20.812925 6.322527 33.063836 -6.055840 47.737900 -3.789921 0.000000 0.000000 0.000000 
-7.792799 91.417648 4.823303 0.000000 0.000000 0.000000 8.198340 3.117989 2.862675 -24.551368 4.383358 8.416867 30.410253 -0.964955 -5.734485 -13.674520 -1.982953 -0.848369 0.000000 0.000000 0.000000 7.908636 3.979221 2.955844 -19.751649 -10.374011 -7.598980 30.225175 -9.521203 4.859793 -13.706141 -8.166013 -8.721648 0.000000 0.000000 0.000000 7.899431 3.670823 3.145365 -0.785675 -0.114068 -0.109133 18.028182 -2.288433 1.412804 4.362627 -2.364481 1.539618 0.000000 0.000000 0.000000 -0.602833 -1.633494 1.579611 8.487886 2.852346 0.437679 0.000000 0.000000 0.000000 0.617713 -1.806636 2.020408 -0.034955 -32.403684 -19.158718 24.840795 16.895357 -40.062000 -17.772463 -59.771395 -18.949043 0.000000 0.000000 0.000000 -0.982479 -1.107958 1.352144 -2.508974 7.980469 3.970007 21.677272 6.067567 34.167495 -4.532852 48.243743 -5.945810 0.000000 0.000000 0.000000 
-7.769510 91.387093 4.858746 0.000000 0.000000 0.000000 8.135934 3.081818 2.949172 -24.446915 4.460756 8.473108 30.460687 -1.186221 -5.818789 -13.689728 -2.110924 -1.251851 0.000000 0.000000 0.000000 7.853584 3.919829 3.072595 -19.621711 -10.214791 -7.665425 30.435162 -9.637654 4.693016 -14.250176 -8.177446 -8.822765 0.000000 0.000000 0.000000 7.848377 3.653336 3.240288 -0.773895 -0.116378 -0.102735 17.486071 -2.129758 1.601041 4.539722 -2.421721 1.679282 0.000000 0.000000 0.000000 -0.467780 -1.704933 1.736811 8.364286 2.703305 0.426352 0.000000 0.000000 0.000000 0.580200 -1.888742 2.122345 -0.499976 -32.421269 -19.584447 26.056844 17.539099 -41.874254 -16.503547 -60.186561 -17.478186 0.000000 0.000000 0.000000 -0.768857 -1.184563 1.480893 -2.682884 8.191709 4.005700 21.633280 6.253764 35.684832 -3.052985 48.192879 -7.992570 0.000000 0.000000 0.000000 
-7.776324 91.342781 4.837685 0.000000 0.000000 0.000000 8.072803 3.062318 3.048205 -24.314348 4.492050 8.458716 30.439278 -1.436510 -5.864830 -13.885855 -2.247271 -1.579748 0.000000 0.000000 0.000000 7.801085 3.882617 3.195655 -19.453374 -10.022562 -7.615877 30.537632 -9.790128 4.464780 -14.829451 -8.219015 -8.993865 0.000000 0.000000 0.000000 7.801130 3.637394 3.374683 -0.763194 -0.120098 -0.096940 17.047802 -1.940157 1.660807 4.755445 -2.427595 1.819726 0.000000 0.000000 0.000000 -0.280892 -1.738480 1.884333 8.186336 2.545539 0.414135 0.000000 0.000000 0.000000 0.599852 -1.922968 2.265250 -0.870496 -32.328549 -19.831999 26.742424 17.575028 -43.854473 -14.872301 -60.270518 -15.533561 0.000000 0.000000 0.000000 -0.521278 -1.220525 1.599817 -2.856497 8.316226 4.460237 20.783801 6.694930 37.486052 -1.734840 47.717447 -9.769588 0.000000 0.000000 0.000000 
-7.815600 91.300438 4.778233 0.000000 0.000000 0.000000 8.011598 3.081293 3.153786 -24.075759 4.491304 8.381480 30.243999 -1.714673 -5.875062 -14.181117 -2.381155 -1.824031 0.000000 0.000000 0.000000 7.748433 3.899219 3.314473 -19.256608 -9.812438 -7.491284 30.593650 -9.961459 4.215927 -15.391551 -8.292710 -9.204965 0.000000 0.000000 0.000000 7.752826 3.671197 3.523228 -0.757531 -0.125192 -0.094837 16.700258 -1.727032 1.632597 4.999129 -2.385058 1.960725 0.000000 0.000000 0.000000 -0.050327 -1.735433 2.014440 7.965908 2.386097 0.406090 0.000000 0.000000 0.000000 0.671898 -1.908989 2.440376 -1.154129 -32.141333 -19.943895 26.930483 17.041324 -45.889627 -13.089977 -60.248976 -13.365314 0.000000 0.000000 0.000000 -0.251782 -1.218181 1.708827 -3.033366 8.398173 5.286669 19.268686 7.265109 39.439858 -0.639385 46.987907 -11.164305 0.000000 0.000000 0.000000 
-7.884861 91.267464 4.699961 0.000000 0.000000 0.000000 7.935853 3.174517 3.259490 -23.736752 4.551282 8.285737 29.878895 -1.976641 -5.891162 -14.425792 -2.470871 -1.948571 0.000000 0.000000 0.000000 7.677325 3.988850 3.421152 -19.058528 -9.643008 -7.363098 30.688282 -10.147388 4.017633 -15.886947 -8.410260 -9.442402 0.000000 0.000000 0.000000 7.694350 3.786160 3.657368 -0.755108 -0.130953 -0.098412 16.404489 -1.507910 1.564155 5.252226 -2.298383 2.094977 0.000000 0.000000 0.000000 0.198188 -1.695277 2.127869 7.719950 2.230613 0.409609 0.000000 0.000000 0.000000 0.789590 -1.848439 2.641322 -1.356160 -31.876011 -19.924548 26.692982 15.999078 -47.936368 -11.328255 -60.268899 -11.173940 0.000000 0.000000 0.000000 0.017056 -1.177204 1.809942 -3.190209 8.489654 6.371010 17.245664 7.938000 41.529695 0.194645 46.066713 -12.142185 0.000000 0.000000 0.000000 
-7.969908 91.235558 4.623158 0.000000 0.000000 0.000000 7.831783 3.352277 3.365422 -23.356877 4.698561 8.198195 29.400628 -2.197816 -5.936038 -14.563714 -2.500786 -1.932221 0.000000 0.000000 0.000000 7.574930 4.158479 3.520921 -18.891098 -9.536071 -7.275333 30.874111 -10.333815 3.878426 -16.254208 -8.568089 -9.683897 0.000000 0.000000 0.000000 7.616523 3.979521 3.782192 -0.757694 -0.135049 -0.105168 16.120192 -1.286115 1.482471 5.511469 -2.166070 2.218590 0.000000 0.000000 0.000000 0.453110 -1.617445 2.221932 7.459489 2.083475 0.426773 0.000000 0.000000 0.000000 0.943383 -1.740054 2.852637 -1.479888 -31.561488 -19.794889 26.019534 14.557122 -49.945413 -9.660371 -60.244639 -9.059617 0.000000 0.000000 0.000000 0.291260 -1.095742 1.900093 -3.311494 8.637842 7.538860 14.814047 8.876528 43.783862 0.739994 44.873014 -12.706977 0.000000 0.000000 0.000000 
-8.056200 91.201553 4.563837 0.000000 0.000000 0.000000 7.694981 3.584675 3.476306 -22.963113 4.879643 8.113707 28.929123 -2.402189 -5.990723 -14.642756 -2.463884 -1.773927 0.000000 0.000000 0.000000 7.441452 4.384720 3.625138 -18.712294 -9.447917 -7.227714 31.082927 -10.480737 3.768541 -16.502511 -8.729298 -9.860695 0.000000 0.000000 0.000000 7.507549 4.232780 3.906713 -0.762499 -0.137108 -0.109437 15.786755 -1.066361 1.409212 5.781152 -1.990790 2.315037 0.000000 0.000000 0.000000 0.693140 -1.504513 2.301582 7.194598 1.949883 0.458817 0.000000 0.000000 0.000000 1.133835 -1.592321 3.049591 -1.540830 -31.230726 -19.560004 24.877359 12.838227 -51.879883 -8.131678 -59.945237 -7.089393 0.000000 0.000000 0.000000 0.580921 -0.975951 1.979810 -3.379414 8.859311 8.617978 12.128400 10.178307 46.206021 1.006557 43.448838 -12.892932 0.000000 0.000000 0.000000 
